<svg width="37" height="32" viewBox="0 0 37 32" fill="none" xmlns="http://www.w3.org/2000/svg">
<g clip-path="url(#clip0_1_759)">
<path opacity="0.21" fill-rule="evenodd" clip-rule="evenodd" d="M31.7467 31.0985C29.6017 31.0985 27.7496 31.0985 27.6929 31.1023L25.9447 28.0047C25.1396 29.2955 23.9698 30.2877 22.4446 30.9719C22.3331 31.0229 22.2178 31.072 22.1006 31.1174C22.0213 31.1514 21.9419 31.1836 21.8606 31.2119C20.4659 31.7354 18.8651 32 17.0565 32C13.7151 32 11.1524 31.1949 9.35506 29.5866C7.59177 28.0066 6.69406 25.7444 6.66949 22.798C8.76541 20.5226 11.1259 20.2863 13.562 20.2334C13.5412 20.2617 13.5223 20.2901 13.5034 20.3184C13.4883 20.3411 13.4732 20.3619 13.46 20.3846C13.4411 20.4186 13.4222 20.4507 13.4051 20.4848C13.3825 20.5282 13.3617 20.5717 13.3428 20.6171C13.3295 20.6473 13.3163 20.6775 13.3069 20.7097C13.2955 20.7361 13.2861 20.7645 13.2785 20.7928C13.2691 20.8249 13.2596 20.8552 13.2521 20.8873C13.2407 20.9327 13.2313 20.9799 13.2237 21.0253C13.218 21.0593 13.2143 21.0952 13.2105 21.1292C13.2067 21.1443 13.2067 21.1613 13.2067 21.1784C13.2029 21.218 13.201 21.2596 13.201 21.2993C13.1991 21.5166 13.2426 21.7302 13.3295 21.9249C13.0461 22.2273 12.8854 22.6468 12.8854 23.0947C12.8854 23.2762 12.9119 23.4614 12.9667 23.6466C13.1991 24.4177 13.8644 24.9223 14.5618 24.9223C14.6997 24.9223 14.8377 24.9034 14.9738 24.8618L15.0475 24.8334C15.1363 25.1037 15.3045 25.3532 15.5294 25.5516C15.7543 25.7519 16.0359 25.9012 16.3591 25.975C16.5027 26.0071 16.6445 26.0222 16.7843 26.0222C17.2454 26.0222 17.6745 25.8521 17.9806 25.563C18.1526 25.6688 18.3454 25.7519 18.557 25.7992C18.6988 25.8313 18.8386 25.8464 18.9766 25.8464C19.0806 25.8464 19.1826 25.8389 19.2809 25.8219C19.5965 25.9768 19.8516 26.1696 20.0482 26.4021C20.2466 26.6345 20.3865 26.9067 20.4677 27.2147H21.2256L21.0744 25.9787C21.1916 26.0014 21.3125 26.0128 21.4354 26.0128C21.9173 26.0128 22.352 25.837 22.6676 25.5535C22.9832 25.27 23.1779 24.8769 23.1779 24.4441C23.1779 24.3232 23.1609 24.2079 23.1325 24.0945C23.1817 24.0718 23.2289 24.0472 23.2743 24.0208L23.3007 24.0057C23.3461 23.9792 23.3877 23.9509 23.4292 23.9206C23.4708 23.8904 23.5105 23.8583 23.5483 23.8242L23.5691 23.8072C23.6088 23.7732 23.6447 23.7373 23.6787 23.6995C23.7297 23.6466 23.7751 23.588 23.8167 23.5275C23.8375 23.4992 23.8564 23.4689 23.8753 23.4368C23.8942 23.4047 23.9112 23.3744 23.9263 23.3442C23.9584 23.278 23.9868 23.21 24.0094 23.1401H24.0113C27.7571 25.2832 30.5051 28.2126 31.7467 31.0985Z" fill="white"/>
<defs>
<linearGradient id="paint0_linear_1_759" x1="22.7432" y1="5.45807" x2="15.3555" y2="26.9142" gradientUnits="userSpaceOnUse">
<stop offset="1" stop-color="#1DA2FF"/>
</linearGradient>
<clipPath id="clip0_1_759">
<rect width="36.5169" height="32" fill="white"/>
</clipPath>
</svg>
